<?xml version="1.0" encoding="utf-8"?>
<!-- Generator: Adobe Illustrator 19.0.0, SVG Export Plug-In . SVG Version: 6.00 Build 0)  -->
<svg version="1.1" id="Layer_1" xmlns="http://www.w3.org/2000/svg" xmlns:xlink="http://www.w3.org/1999/xlink" x="0px" y="0px"
	 viewBox="0 343.5 336.1 136.5" style="enable-background:new 0 343.5 336.1 136.5;" xml:space="preserve">
<style type="text/css">
	.st0{fill:#3399CC;}
	.st1{fill:#FFFFFF;}
</style>
<path id="XMLID_195_" class="st0" d="M329.6,480H6.5c-3.6,0-6.5-5.4-6.5-12V355.5c0-6.6,2.9-12,6.5-12h323.1c3.6,0,6.5,5.4,6.5,12
	V468C336.1,474.6,333.2,480,329.6,480z"/>
<g>
	<path class="st1" d="M7.4,449.6v-75.7h26c8.6,0,15.1,1.7,19.6,5.1c4.5,3.4,6.7,8.5,6.7,15.3c0,3.5-0.9,6.6-2.8,9.4
		c-1.9,2.8-4.6,4.9-8.2,6.4c4.1,1.1,7.3,3.2,9.5,6.3c2.2,3.1,3.4,6.8,3.4,11.1c0,7.1-2.3,12.6-6.8,16.4c-4.6,3.8-11.1,5.7-19.6,5.7
		H7.4z M20.6,405.8h12.9c4.1,0,7.3-0.9,9.6-2.8c2.3-1.9,3.5-4.5,3.5-7.9c0-3.7-1.1-6.4-3.2-8.1c-2.1-1.7-5.5-2.5-10-2.5H20.6V405.8z
		 M20.6,415.4v23.7h14.6c4.1,0,7.4-1,9.7-3.1c2.3-2,3.5-4.9,3.5-8.5c0-7.9-4-11.9-12.1-12.1H20.6z"/>
	<path class="st1" d="M87.8,439.1h34.4v10.5H74.6v-75.7h13.2V439.1z"/>
	<path class="st1" d="M189.3,413.7c0,7.4-1.3,13.9-3.8,19.5c-2.6,5.6-6.2,9.9-11,12.9c-4.8,3-10.3,4.5-16.5,4.5
		c-6.1,0-11.6-1.5-16.4-4.5c-4.8-3-8.5-7.3-11.1-12.8c-2.6-5.5-3.9-11.9-4-19.2v-4.3c0-7.4,1.3-13.9,3.9-19.6
		c2.6-5.7,6.3-10,11.1-13c4.8-3,10.2-4.5,16.4-4.5c6.2,0,11.6,1.5,16.4,4.4c4.8,3,8.5,7.2,11.1,12.8c2.6,5.6,3.9,12,4,19.4V413.7z
		 M176.2,409.8c0-8.4-1.6-14.8-4.8-19.3c-3.2-4.5-7.7-6.7-13.5-6.7c-5.7,0-10.1,2.2-13.3,6.7c-3.2,4.5-4.8,10.8-4.9,18.9v4.4
		c0,8.3,1.6,14.8,4.9,19.3c3.2,4.5,7.7,6.8,13.5,6.8c5.8,0,10.3-2.2,13.4-6.7c3.1-4.4,4.7-10.9,4.7-19.5V409.8z"/>
	<path class="st1" d="M260.2,424.9c-0.8,8.1-3.7,14.4-8.9,18.9c-5.2,4.5-12.1,6.8-20.8,6.8c-6,0-11.3-1.4-15.9-4.3
		c-4.6-2.9-8.1-6.9-10.6-12.2s-3.8-11.4-3.9-18.4v-7.1c0-7.1,1.3-13.4,3.8-18.9c2.5-5.4,6.2-9.6,10.9-12.6
		c4.7-2.9,10.2-4.4,16.4-4.4c8.4,0,15.1,2.3,20.2,6.8c5.1,4.5,8.1,10.9,8.9,19.2h-13.1c-0.6-5.4-2.2-9.4-4.8-11.8
		c-2.5-2.4-6.3-3.6-11.2-3.6c-5.7,0-10.1,2.1-13.2,6.3c-3.1,4.2-4.6,10.3-4.7,18.4v6.7c0,8.2,1.5,14.4,4.4,18.7
		c2.9,4.3,7.2,6.5,12.9,6.5c5.2,0,9-1.2,11.6-3.5s4.2-6.2,4.9-11.6H260.2z"/>
	<path class="st1" d="M293.7,416.9l-8.6,9.1v23.6H272v-75.7h13.2v35.5l7.3-9l22.2-26.5h15.9l-28.1,33.5l29.7,42.2h-15.6L293.7,416.9
		z"/>
</g>
</svg>
