<?xml version="1.0" encoding="utf-8"?>
<!-- Generator: Adobe Illustrator 19.0.0, SVG Export Plug-In . SVG Version: 6.00 Build 0)  -->
<svg version="1.1" id="Layer_1" xmlns="http://www.w3.org/2000/svg" xmlns:xlink="http://www.w3.org/1999/xlink" x="0px" y="0px"
	 viewBox="-64 -15 511 511" style="enable-background:new -64 -15 511 511;" xml:space="preserve">
<style type="text/css">
	.st0{fill:#3399CC;}
</style>
<path d="M50.4,474.7c-5.6,0-11.2-1.7-15.9-5.2c-8.8-6.4-13-17.4-10.6-28l32.9-144.8l-111.5-97.8c-8.2-7.2-11.3-18.5-8-28.9
	c3.4-10.3,12.5-17.7,23.4-18.7L108.2,138L166.5,1.5c4.3-10,14.1-16.5,25-16.5s20.7,6.5,25,16.5L274.8,138l147.5,13.4
	c10.9,1,20,8.3,23.4,18.7c3.4,10.3,0.3,21.7-7.9,28.9l-111.5,97.8l32.9,144.8c2.4,10.6-1.7,21.7-10.6,28c-8.8,6.4-20.6,6.9-29.9,1.3
	l-127.2-76L64.3,470.8C60,473.4,55.2,474.7,50.4,474.7z"/>
<path class="st0" d="M191.5,362c4.8,0,9.6,1.3,13.9,3.9l120,71.8l-31-136.7c-2.2-9.7,1.1-19.9,8.6-26.5l105.3-92.3L269,169.5
	c-10-0.9-18.7-7.2-22.6-16.5l-55-128.8l-55,128.8c-3.9,9.2-12.5,15.5-22.5,16.4L-25.4,182l105.3,92.3c7.5,6.6,10.8,16.7,8.6,26.5
	l-31,136.7l120-71.8C181.9,363.3,186.7,362,191.5,362z"/>
<path d="M107.1,140.6L107.1,140.6L107.1,140.6z"/>
<path d="M275.9,140.5L275.9,140.5L275.9,140.5z"/>
</svg>
