<?xml version="1.0" encoding="utf-8"?>
<!-- Generator: Adobe Illustrator 19.0.0, SVG Export Plug-In . SVG Version: 6.00 Build 0)  -->
<svg version="1.1" id="Layer_1" xmlns="http://www.w3.org/2000/svg" xmlns:xlink="http://www.w3.org/1999/xlink" x="0px" y="0px"
	 viewBox="0 343.5 336.1 136.5" style="enable-background:new 0 343.5 336.1 136.5;" xml:space="preserve">
<style type="text/css">
	.st0{fill:#336699;}
	.st1{fill:#FFFFFF;}
</style>
<path id="XMLID_195_" class="st0" d="M329.6,480H6.5c-3.6,0-6.5-5.4-6.5-12V355.5c0-6.6,2.9-12,6.5-12h323.1c3.6,0,6.5,5.4,6.5,12
	V468C336.1,474.6,333.2,480,329.6,480z"/>
<g>
	<path class="st1" d="M43.2,382.3v35.3c0,5.6-1.8,10.1-5.4,13.3c-3.6,3.3-8.4,4.9-14.4,4.9c-6.1,0-10.9-1.6-14.4-4.8
		c-3.6-3.2-5.3-7.7-5.3-13.4v-35.3h9.1v35.4c0,3.5,0.9,6.2,2.7,8.1c1.8,1.9,4.4,2.8,7.9,2.8c7.1,0,10.6-3.7,10.6-11.2v-35.1H43.2z"
		/>
	<path class="st1" d="M94.9,435.2h-9.2l-23.6-37.5v37.5H53v-52.9h9.2L85.8,420v-37.6h9.1V435.2z"/>
	<path class="st1" d="M105.8,435.2v-52.9h18.1c6,0,10.5,1.2,13.6,3.6c3.1,2.4,4.7,6,4.7,10.7c0,2.4-0.7,4.6-2,6.5
		c-1.3,1.9-3.2,3.4-5.7,4.5c2.9,0.8,5.1,2.2,6.6,4.4c1.6,2.1,2.3,4.7,2.3,7.7c0,5-1.6,8.8-4.8,11.4c-3.2,2.7-7.7,4-13.7,4H105.8z
		 M114.9,404.6h9c2.9,0,5.1-0.6,6.7-1.9c1.6-1.3,2.4-3.1,2.4-5.5c0-2.6-0.7-4.5-2.2-5.7s-3.8-1.7-7-1.7h-8.9V404.6z M114.9,411.3
		v16.5h10.2c2.9,0,5.1-0.7,6.8-2.1c1.6-1.4,2.4-3.4,2.4-6c0-5.5-2.8-8.3-8.4-8.4H114.9z"/>
	<path class="st1" d="M161.8,427.9h24v7.3h-33.2v-52.9h9.2V427.9z"/>
	<path class="st1" d="M232.7,410.1c0,5.2-0.9,9.7-2.7,13.6c-1.8,3.9-4.4,6.9-7.7,9c-3.3,2.1-7.2,3.1-11.5,3.1c-4.3,0-8.1-1-11.5-3.1
		c-3.4-2.1-5.9-5.1-7.8-8.9c-1.8-3.9-2.8-8.3-2.8-13.4v-3c0-5.2,0.9-9.7,2.7-13.6c1.8-3.9,4.4-7,7.7-9.1c3.3-2.1,7.1-3.1,11.5-3.1
		c4.3,0,8.1,1,11.5,3.1c3.3,2.1,5.9,5,7.7,8.9c1.8,3.9,2.7,8.4,2.8,13.6V410.1z M223.6,407.4c0-5.9-1.1-10.3-3.3-13.5
		c-2.2-3.1-5.4-4.7-9.4-4.7c-4,0-7.1,1.6-9.3,4.7c-2.2,3.1-3.4,7.5-3.4,13.2v3c0,5.8,1.1,10.3,3.4,13.5c2.3,3.2,5.4,4.8,9.4,4.8
		c4.1,0,7.2-1.5,9.4-4.6c2.2-3.1,3.3-7.6,3.3-13.6V407.4z"/>
	<path class="st1" d="M282.2,418c-0.5,5.6-2.6,10-6.2,13.2c-3.6,3.2-8.5,4.7-14.5,4.7c-4.2,0-7.9-1-11.1-3c-3.2-2-5.7-4.8-7.4-8.5
		c-1.7-3.7-2.6-7.9-2.7-12.8v-4.9c0-5,0.9-9.4,2.6-13.2c1.8-3.8,4.3-6.7,7.6-8.8c3.3-2.1,7.1-3.1,11.5-3.1c5.8,0,10.5,1.6,14.1,4.7
		c3.6,3.2,5.6,7.6,6.2,13.4h-9.1c-0.4-3.8-1.5-6.5-3.3-8.2c-1.8-1.7-4.4-2.5-7.8-2.5c-4,0-7.1,1.5-9.2,4.4
		c-2.1,2.9-3.2,7.2-3.3,12.8v4.7c0,5.7,1,10.1,3.1,13.1c2,3,5,4.5,9,4.5c3.6,0,6.3-0.8,8.1-2.4c1.8-1.6,3-4.3,3.4-8.1H282.2z"/>
	<path class="st1" d="M305.6,412.4l-6,6.4v16.5h-9.2v-52.9h9.2v24.8l5.1-6.3l15.5-18.5h11.1l-19.6,23.4l20.8,29.4h-10.9L305.6,412.4
		z"/>
</g>
</svg>
