<?xml version="1.0" encoding="utf-8"?>
<!-- Generator: Adobe Illustrator 19.0.0, SVG Export Plug-In . SVG Version: 6.00 Build 0)  -->
<svg version="1.1" id="Layer_1" xmlns="http://www.w3.org/2000/svg" xmlns:xlink="http://www.w3.org/1999/xlink" x="0px" y="0px"
	 viewBox="0 0 240 100" style="enable-background:new 0 0 240 100;" xml:space="preserve">
<style type="text/css">
	.st0{fill:#E37980;stroke:#DA2C38;stroke-miterlimit:10;}
	.st1{fill:#DA2C38;}
	.st2{fill:#FFFFFF;}
</style>
<path id="XMLID_1_" class="st0" d="M215.4,99.3h-197c-6.6,0-12-5.4-12-12V26.3c0-6.6,5.4-12,12-12h197c6.6,0,12,5.4,12,12v61.1
	C227.4,93.9,222,99.3,215.4,99.3z"/>
<g id="XMLID_6_">
	<path id="XMLID_7_" class="st1" d="M0.5,2.5v21.7c0,0.7,0.5,1.2,1.2,1.2h5.1l8.6,8.5c0.2,0.2,0.5,0.3,0.8,0.3c0.2,0,0.3,0,0.5-0.1
		c0.4-0.2,0.7-0.6,0.7-1.1v-7.7h18.1c0.7,0,1.2-0.5,1.2-1.2V2.5c0-0.7-0.5-1.2-1.2-1.2H1.7C1.1,1.3,0.5,1.8,0.5,2.5z M20.3,15.6
		c0,0.9-0.7,1.7-1.7,1.7c-0.9,0-1.7-0.7-1.7-1.7v-9c0-0.9,0.7-1.7,1.7-1.7c0.9,0,1.7,0.7,1.7,1.7V15.6z M16.8,20
		c0-1,0.8-1.8,1.8-1.8c1,0,1.8,0.8,1.8,1.8c0,1-0.8,1.8-1.8,1.8C17.6,21.9,16.8,21,16.8,20z"/>
</g>
<path id="XMLID_5_" class="st2" d="M18.6,17.3L18.6,17.3c0.9,0,1.7-0.7,1.7-1.7v-9c0-0.9-0.7-1.7-1.7-1.7h0c-0.9,0-1.7,0.7-1.7,1.7
	v9C17,16.5,17.7,17.3,18.6,17.3z"/>
<circle id="XMLID_8_" class="st2" cx="18.6" cy="20" r="1.8"/>
</svg>
